<svg width="26" height="26" viewBox="0 0 26 26" fill="none" xmlns="http://www.w3.org/2000/svg">
<path d="M4.875 23.8327C4.44167 23.8327 4.0625 23.6702 3.7375 23.3452C3.4125 23.0202 3.25 22.641 3.25 22.2077V5.41602C3.25 4.98268 3.4125 4.60352 3.7375 4.27852C4.0625 3.95352 4.44167 3.79102 4.875 3.79102H6.63542V2.16602H8.39583V3.79102H17.6042V2.16602H19.3646V3.79102H21.125C21.5583 3.79102 21.9375 3.95352 22.2625 4.27852C22.5875 4.60352 22.75 4.98268 22.75 5.41602V22.2077C22.75 22.641 22.5875 23.0202 22.2625 23.3452C21.9375 23.6702 21.5583 23.8327 21.125 23.8327H4.875ZM4.875 22.2077H21.125V10.5618H4.875V22.2077ZM4.875 8.93685H21.125V5.41602H4.875V8.93685ZM4.875 8.93685V5.41602V8.93685Z" fill="#777E99"/>
</svg>
