<svg width="18" height="18" viewBox="0 0 18 18" fill="none" xmlns="http://www.w3.org/2000/svg">
<path d="M9 11.4187L12.2437 8.175L11.4375 7.3875L9 9.825L6.5625 7.3875L5.75625 8.175L9 11.4187ZM9 16.5C7.975 16.5 7.00625 16.3031 6.09375 15.9094C5.18125 15.5156 4.38437 14.9781 3.70312 14.2969C3.02187 13.6156 2.48437 12.8187 2.09062 11.9062C1.69687 10.9937 1.5 10.025 1.5 9C1.5 7.9625 1.69687 6.9875 2.09062 6.075C2.48437 5.1625 3.02187 4.36875 3.70312 3.69375C4.38437 3.01875 5.18125 2.48437 6.09375 2.09062C7.00625 1.69687 7.975 1.5 9 1.5C10.0375 1.5 11.0125 1.69687 11.925 2.09062C12.8375 2.48437 13.6312 3.01875 14.3062 3.69375C14.9812 4.36875 15.5156 5.1625 15.9094 6.075C16.3031 6.9875 16.5 7.9625 16.5 9C16.5 10.025 16.3031 10.9937 15.9094 11.9062C15.5156 12.8187 14.9812 13.6156 14.3062 14.2969C13.6312 14.9781 12.8375 15.5156 11.925 15.9094C11.0125 16.3031 10.0375 16.5 9 16.5ZM9 15.375C10.775 15.375 12.2812 14.7531 13.5187 13.5094C14.7562 12.2656 15.375 10.7625 15.375 9C15.375 7.225 14.7562 5.71875 13.5187 4.48125C12.2812 3.24375 10.775 2.625 9 2.625C7.2375 2.625 5.73437 3.24375 4.49062 4.48125C3.24687 5.71875 2.625 7.225 2.625 9C2.625 10.7625 3.24687 12.2656 4.49062 13.5094C5.73437 14.7531 7.2375 15.375 9 15.375Z" fill="white"/>
</svg>
