<svg width="26" height="26" viewBox="0 0 26 26" fill="none" xmlns="http://www.w3.org/2000/svg">
<path d="M12.9999 12.9727C11.8083 12.9727 10.8333 12.5935 10.0749 11.8352C9.31659 11.0768 8.93742 10.1018 8.93742 8.91016C8.93742 7.71849 9.31659 6.74349 10.0749 5.98516C10.8333 5.22682 11.8083 4.84766 12.9999 4.84766C14.1916 4.84766 15.1666 5.22682 15.9249 5.98516C16.6833 6.74349 17.0624 7.71849 17.0624 8.91016C17.0624 10.1018 16.6833 11.0768 15.9249 11.8352C15.1666 12.5935 14.1916 12.9727 12.9999 12.9727ZM4.33325 21.6664V19.1206C4.33325 18.4345 4.50478 17.8477 4.84784 17.3602C5.19089 16.8727 5.63325 16.5025 6.17492 16.2497C7.38464 15.7081 8.54471 15.3018 9.65513 15.031C10.7655 14.7602 11.8805 14.6247 12.9999 14.6247C14.1194 14.6247 15.2298 14.7647 16.3312 15.0445C17.4326 15.3244 18.5881 15.7261 19.7978 16.2497C20.3576 16.5025 20.8089 16.8727 21.152 17.3602C21.4951 17.8477 21.6666 18.4345 21.6666 19.1206V21.6664H4.33325ZM5.95825 20.0414H20.0416V19.1206C20.0416 18.8317 19.9558 18.5563 19.7843 18.2945C19.6128 18.0327 19.4006 17.8386 19.1478 17.7122C17.9923 17.1525 16.936 16.7688 15.9791 16.5612C15.0221 16.3536 14.0291 16.2497 12.9999 16.2497C11.9708 16.2497 10.9687 16.3536 9.99367 16.5612C9.01867 16.7688 7.96242 17.1525 6.82492 17.7122C6.57214 17.8386 6.3645 18.0327 6.202 18.2945C6.0395 18.5563 5.95825 18.8317 5.95825 19.1206V20.0414ZM12.9999 11.3477C13.7041 11.3477 14.2864 11.1174 14.7468 10.657C15.2072 10.1966 15.4374 9.61432 15.4374 8.91016C15.4374 8.20599 15.2072 7.6237 14.7468 7.16328C14.2864 6.70287 13.7041 6.47266 12.9999 6.47266C12.2958 6.47266 11.7135 6.70287 11.253 7.16328C10.7926 7.6237 10.5624 8.20599 10.5624 8.91016C10.5624 9.61432 10.7926 10.1966 11.253 10.657C11.7135 11.1174 12.2958 11.3477 12.9999 11.3477Z" fill="#777E99"/>
</svg>
