<svg width="26" height="26" viewBox="0 0 26 26" fill="none" xmlns="http://www.w3.org/2000/svg">
<path d="M2.16675 20.5833V18.9583H13.0001V20.5833H2.16675ZM2.16675 14.8958V13.2708H7.58341V14.8958H2.16675ZM2.16675 9.20833V7.58333H7.58341V9.20833H2.16675ZM22.6959 20.5833L18.3626 16.25C17.8931 16.6111 17.3876 16.8819 16.8459 17.0625C16.3042 17.2431 15.7445 17.3333 15.1667 17.3333C13.6681 17.3333 12.3907 16.8052 11.3345 15.749C10.2782 14.6927 9.75008 13.4153 9.75008 11.9167C9.75008 10.4181 10.2782 9.14062 11.3345 8.08438C12.3907 7.02813 13.6681 6.5 15.1667 6.5C16.6654 6.5 17.9428 7.02813 18.999 8.08438C20.0553 9.14062 20.5834 10.4181 20.5834 11.9167C20.5834 12.4944 20.4931 13.0542 20.3126 13.5958C20.132 14.1375 19.8612 14.6431 19.5001 15.1125L23.8334 19.4458L22.6959 20.5833ZM15.1667 15.7083C16.214 15.7083 17.1077 15.3382 17.848 14.5979C18.5883 13.8576 18.9584 12.9639 18.9584 11.9167C18.9584 10.8694 18.5883 9.97569 17.848 9.23542C17.1077 8.49514 16.214 8.125 15.1667 8.125C14.1195 8.125 13.2258 8.49514 12.4855 9.23542C11.7452 9.97569 11.3751 10.8694 11.3751 11.9167C11.3751 12.9639 11.7452 13.8576 12.4855 14.5979C13.2258 15.3382 14.1195 15.7083 15.1667 15.7083Z" fill="white"/>
</svg>
