<svg width="26" height="26" viewBox="0 0 26 26" fill="none" xmlns="http://www.w3.org/2000/svg">
<path d="M11.7541 19.0931L17.9562 12.891L16.8999 11.8348L11.7541 16.9806L8.9645 14.191L7.90825 15.2473L11.7541 19.0931ZM5.95825 23.8327C5.52492 23.8327 5.14575 23.6702 4.82075 23.3452C4.49575 23.0202 4.33325 22.641 4.33325 22.2077V3.79102C4.33325 3.35768 4.49575 2.97852 4.82075 2.65352C5.14575 2.32852 5.52492 2.16602 5.95825 2.16602H15.7353L21.6666 8.09727V22.2077C21.6666 22.641 21.5041 23.0202 21.1791 23.3452C20.8541 23.6702 20.4749 23.8327 20.0416 23.8327H5.95825ZM14.9228 8.82851V3.79102H5.95825V22.2077H20.0416V8.82851H14.9228ZM5.95825 3.79102V8.82851V3.79102V22.2077V3.79102Z" fill="white"/>
</svg>
